<!-- Created with Vectornator (http://vectornator.io/) -->
<svg height="100%" stroke-miterlimit="10" style="fill-rule:nonzero;clip-rule:evenodd;stroke-linecap:round;stroke-linejoin:round;" version="1.1" viewBox="0 0 117.211 107.685" width="100%" xml:space="preserve" xmlns="http://www.w3.org/2000/svg" xmlns:vectornator="http://vectornator.io" xmlns:xlink="http://www.w3.org/1999/xlink">
<defs/>
<g id="Layer-1" vectornator:layerName="Layer 1">
<path d="M42.4039 30.7527C42.4039 29.271 43.374 36.3263 43.4728 37.1661C43.933 41.0776 44.107 45.0119 44.5417 48.924C45.9681 61.762 45.763 75.7474 49.8862 88.1171" fill="none" fill-rule="evenodd" opacity="0.8" stroke="#000000" stroke-dasharray="" stroke-linecap="round" stroke-linejoin="round" stroke-width="2.37892"/>
<path d="M63.782 57.119C63.782 59.5229 64.1005 61.8809 64.4946 64.245C64.849 66.3719 65.1428 68.199 65.5635 70.3021C65.8476 71.7228 66.2343 73.1845 66.6324 74.5777C66.8081 75.1927 67.0589 76.9313 67.345 76.3592C68.997 73.0551 64.2715 57.4753 71.6206 57.4753C74.6801 57.4753 76.9998 68.9984 77.6777 71.371C78.1016 72.8546 79.5741 75.3869 81.597 74.5777C85.3878 73.0614 93.4971 55.2654 91.5734 51.4181C89.8054 47.8822 84.2266 49.1674 81.9533 51.0618C78.5207 53.9224 75.8962 58.6729 75.8962 63.1761" fill="none" fill-rule="evenodd" opacity="0.8" stroke="#000000" stroke-dasharray="" stroke-linecap="round" stroke-linejoin="round" stroke-width="2.37892"/>
<path d="M62.3568 46.0736C62.1192 46.1924 61.8817 46.3112 61.6442 46.4299" fill="none" fill-rule="evenodd" opacity="0.8" stroke="#000000" stroke-dasharray="" stroke-linecap="round" stroke-linejoin="round" stroke-width="2.37892"/>
<path d="M13.1872 62.1072C14.7012 60.5932 16.7502 59.7318 18.5317 58.5442C25.6415 53.8043 32.8227 49.2581 40.2661 45.0047C55.788 36.1351 70.9092 26.6546 86.9415 18.6385" fill="none" fill-rule="evenodd" opacity="0.8" stroke="#000000" stroke-dasharray="" stroke-linecap="round" stroke-linejoin="round" stroke-width="2.37892"/>
</g>
</svg>
